<?xml version="1.0" encoding="UTF-8"?>
<svg width="24px" height="24px" viewBox="0 0 24 24" version="1.1" xmlns="http://www.w3.org/2000/svg" xmlns:xlink="http://www.w3.org/1999/xlink">
    <!-- Generator: Sketch 47.1 (45422) - http://www.bohemiancoding.com/sketch -->
    <title>cart</title>
    <desc>Created with Sketch.</desc>
    <defs>
        <polygon id="path-1" points="0.0870967742 23.2258065 23.2258065 23.2258065 23.2258065 0.0580645161 0.0870967742 0.0580645161"></polygon>
    </defs>
    <g id="Key-Pages" stroke="none" stroke-width="1" fill="none" fill-rule="evenodd">
        <g id="homepage-v5" transform="translate(-1612.000000, -26.000000)">
            <g id="SECTION:-nav-dark">
                <g id="Group-13" transform="translate(1612.000000, 17.000000)">
                    <g id="shopping-cart" transform="translate(0.000000, 1.000000)">
                        <g id="cart" transform="translate(0.000000, 8.000000)">
                            <mask id="mask-2" fill="white">
                                <use xlink:href="#path-1"></use>
                            </mask>
                            <g id="Clip-2"></g>
                            <path d="M6.96919355,18.5820968 C5.69322581,18.5820968 4.64370968,19.6258065 4.64370968,20.9003226 C4.64370968,22.1820968 5.69322581,23.2258065 6.96919355,23.2258065 C8.24516129,23.2258065 9.28741935,22.1820968 9.28741935,20.9003226 C9.28741935,19.6258065 8.24516129,18.5820968 6.96919355,18.5820968 Z M0,0 L0,2.32548387 L2.32548387,2.32548387 L6.50322581,11.1483871 L4.87596774,13.9383871 C4.76274194,14.283871 4.64370968,14.7483871 4.64370968,15.093871 C4.64370968,16.3756452 5.69322581,17.4193548 6.96919355,17.4193548 L20.9003226,17.4193548 L20.9003226,15.093871 L7.43370968,15.093871 C7.31467742,15.093871 7.20145161,14.9806452 7.20145161,14.8616129 L7.20145161,14.7483871 L8.24516129,12.7756452 L16.8416129,12.7756452 C17.7648387,12.7756452 18.4630645,12.3096774 18.8143548,11.6129032 L22.9935484,4.06596774 C23.2258065,3.83370968 23.2258065,3.71467742 23.2258065,3.48096774 C23.2258065,2.79 22.7612903,2.32548387 22.0630645,2.32548387 L4.87596774,2.32548387 L3.83370968,0 L0,0 Z M18.5820968,18.5820968 C17.306129,18.5820968 16.2566129,19.6258065 16.2566129,20.9003226 C16.2566129,22.1820968 17.306129,23.2258065 18.5820968,23.2258065 C19.8580645,23.2258065 20.9003226,22.1820968 20.9003226,20.9003226 C20.9003226,19.6258065 19.8580645,18.5820968 18.5820968,18.5820968 Z" id="Fill-1" fill="#FFFFFF" mask="url(#mask-2)"></path>
                        </g>
                    </g>
                </g>
            </g>
        </g>
    </g>
</svg>