<?xml version="1.0" encoding="UTF-8"?>
<svg width="72px" height="25px" viewBox="0 0 72 25" version="1.1" xmlns="http://www.w3.org/2000/svg" xmlns:xlink="http://www.w3.org/1999/xlink">
    <!-- Generator: Sketch 47.1 (45422) - http://www.bohemiancoding.com/sketch -->
    <title>container 40ft</title>
    <desc>Created with Sketch.</desc>
    <defs>
        <polygon id="path-1" points="0.00375 25.0416875 0.00375 0.0416875 73.00375 0.0416875 73.00375 25.0416875"></polygon>
    </defs>
    <g id="Key-Pages" stroke="none" stroke-width="1" fill="none" fill-rule="evenodd">
        <g id="homepage-v5" transform="translate(-725.000000, -2236.000000)">
            <g id="SECTION:-ipad-Copy" transform="translate(0.000000, 1680.000000)">
                <g id="inventory" transform="translate(705.000000, 308.000000)">
                    <g id="product-copy-4" transform="translate(0.000000, 230.000000)">
                        <g id="container-40ft" transform="translate(20.000000, 18.000000)">
                            <g id="Group-4">
                                <mask id="mask-2" fill="white">
                                    <use xlink:href="#path-1"></use>
                                </mask>
                                <g id="Clip-2"></g>
                                <rect id="Rectangle-6" fill="#FFFFFF" mask="url(#mask-2)" x="0" y="23" width="72" height="1.5" rx="0.75"></rect>
                                <path d="M70.6666875,19.708375 C70.6666875,20.075 70.3666875,20.375 70,20.375 L2,20.375 C1.6333125,20.375 1.3333125,20.075 1.3333125,19.708375 L1.3333125,2.0416875 C1.3333125,1.675 1.6333125,1.375 2,1.375 L70,1.375 C70.3666875,1.375 70.6666875,1.675 70.6666875,2.0416875 L70.6666875,19.708375 Z M2,0.0416875 C0.8973125,0.0416875 0,0.939 0,2.0416875 L0,19.708375 C0,20.811 0.8973125,21.708375 2,21.708375 L70,21.708375 C71.1026875,21.708375 72,20.811 72,19.708375 L72,2.0416875 C72,0.939 71.1026875,0.0416875 70,0.0416875 L2,0.0416875 Z" id="Fill-3" fill="#FFFFFF" mask="url(#mask-2)"></path>
                            </g>
                            <path d="M6,2.708375 C5.632,2.708375 5.3333125,3.07411654 5.3333125,3.52482524 L5.3333125,18.2218481 C5.3333125,18.6725568 5.632,19.0383749 6,19.0383749 C6.368,19.0383749 6.6666875,18.6725568 6.6666875,18.2218481 L6.6666875,3.52482524 C6.6666875,3.07411654 6.368,2.708375 6,2.708375" id="Fill-5" fill="#FFFFFF"></path>
                            <path d="M14,2.708375 C13.632,2.708375 13.3333125,3.07411654 13.3333125,3.52482524 L13.3333125,18.2218481 C13.3333125,18.6725568 13.632,19.0383749 14,19.0383749 C14.368,19.0383749 14.6666875,18.6725568 14.6666875,18.2218481 L14.6666875,3.52482524 C14.6666875,3.07411654 14.368,2.708375 14,2.708375" id="Fill-6" fill="#FFFFFF"></path>
                            <path d="M10,2.708375 C9.632,2.708375 9.3333125,3.07411654 9.3333125,3.52482524 L9.3333125,18.2218481 C9.3333125,18.6725568 9.632,19.0383749 10,19.0383749 C10.368,19.0383749 10.6666875,18.6725568 10.6666875,18.2218481 L10.6666875,3.52482524 C10.6666875,3.07411654 10.368,2.708375 10,2.708375" id="Fill-7" fill="#FFFFFF"></path>
                            <path d="M18,2.708375 C17.632,2.708375 17.3333125,3.07411654 17.3333125,3.52482524 L17.3333125,18.2218481 C17.3333125,18.6725568 17.632,19.0383749 18,19.0383749 C18.368,19.0383749 18.6666875,18.6725568 18.6666875,18.2218481 L18.6666875,3.52482524 C18.6666875,3.07411654 18.368,2.708375 18,2.708375" id="Fill-8" fill="#FFFFFF"></path>
                            <path d="M22,2.708375 C21.632,2.708375 21.3333125,3.07411654 21.3333125,3.52482524 L21.3333125,18.2218481 C21.3333125,18.6725568 21.632,19.0383749 22,19.0383749 C22.368,19.0383749 22.6666875,18.6725568 22.6666875,18.2218481 L22.6666875,3.52482524 C22.6666875,3.07411654 22.368,2.708375 22,2.708375" id="Fill-9" fill="#FFFFFF"></path>
                            <path d="M26,2.708375 C25.632,2.708375 25.3333125,3.07411654 25.3333125,3.52482524 L25.3333125,18.2218481 C25.3333125,18.6725568 25.632,19.0383749 26,19.0383749 C26.368,19.0383749 26.6666875,18.6725568 26.6666875,18.2218481 L26.6666875,3.52482524 C26.6666875,3.07411654 26.368,2.708375 26,2.708375" id="Fill-10" fill="#FFFFFF"></path>
                            <path d="M30,2.708375 C29.632,2.708375 29.3333125,3.07411654 29.3333125,3.52482524 L29.3333125,18.2218481 C29.3333125,18.6725568 29.632,19.0383749 30,19.0383749 C30.368,19.0383749 30.6666875,18.6725568 30.6666875,18.2218481 L30.6666875,3.52482524 C30.6666875,3.07411654 30.368,2.708375 30,2.708375" id="Fill-9-Copy" fill="#FFFFFF"></path>
                            <path d="M34,2.708375 C33.632,2.708375 33.3333125,3.07411654 33.3333125,3.52482524 L33.3333125,18.2218481 C33.3333125,18.6725568 33.632,19.0383749 34,19.0383749 C34.368,19.0383749 34.6666875,18.6725568 34.6666875,18.2218481 L34.6666875,3.52482524 C34.6666875,3.07411654 34.368,2.708375 34,2.708375" id="Fill-10-Copy" fill="#FFFFFF"></path>
                            <path d="M38,2.708375 C37.632,2.708375 37.3333125,3.07411654 37.3333125,3.52482524 L37.3333125,18.2218481 C37.3333125,18.6725568 37.632,19.0383749 38,19.0383749 C38.368,19.0383749 38.6666875,18.6725568 38.6666875,18.2218481 L38.6666875,3.52482524 C38.6666875,3.07411654 38.368,2.708375 38,2.708375" id="Fill-5-Copy" fill="#FFFFFF"></path>
                            <path d="M46,2.708375 C45.632,2.708375 45.3333125,3.07411654 45.3333125,3.52482524 L45.3333125,18.2218481 C45.3333125,18.6725568 45.632,19.0383749 46,19.0383749 C46.368,19.0383749 46.6666875,18.6725568 46.6666875,18.2218481 L46.6666875,3.52482524 C46.6666875,3.07411654 46.368,2.708375 46,2.708375" id="Fill-6-Copy" fill="#FFFFFF"></path>
                            <path d="M42,2.708375 C41.632,2.708375 41.3333125,3.07411654 41.3333125,3.52482524 L41.3333125,18.2218481 C41.3333125,18.6725568 41.632,19.0383749 42,19.0383749 C42.368,19.0383749 42.6666875,18.6725568 42.6666875,18.2218481 L42.6666875,3.52482524 C42.6666875,3.07411654 42.368,2.708375 42,2.708375" id="Fill-7-Copy" fill="#FFFFFF"></path>
                            <path d="M50,2.708375 C49.632,2.708375 49.3333125,3.07411654 49.3333125,3.52482524 L49.3333125,18.2218481 C49.3333125,18.6725568 49.632,19.0383749 50,19.0383749 C50.368,19.0383749 50.6666875,18.6725568 50.6666875,18.2218481 L50.6666875,3.52482524 C50.6666875,3.07411654 50.368,2.708375 50,2.708375" id="Fill-8-Copy" fill="#FFFFFF"></path>
                            <path d="M54,2.708375 C53.632,2.708375 53.3333125,3.07411654 53.3333125,3.52482524 L53.3333125,18.2218481 C53.3333125,18.6725568 53.632,19.0383749 54,19.0383749 C54.368,19.0383749 54.6666875,18.6725568 54.6666875,18.2218481 L54.6666875,3.52482524 C54.6666875,3.07411654 54.368,2.708375 54,2.708375" id="Fill-9-Copy-3" fill="#FFFFFF"></path>
                            <path d="M58,2.708375 C57.632,2.708375 57.3333125,3.07411654 57.3333125,3.52482524 L57.3333125,18.2218481 C57.3333125,18.6725568 57.632,19.0383749 58,19.0383749 C58.368,19.0383749 58.6666875,18.6725568 58.6666875,18.2218481 L58.6666875,3.52482524 C58.6666875,3.07411654 58.368,2.708375 58,2.708375" id="Fill-10-Copy-3" fill="#FFFFFF"></path>
                            <path d="M62,2.708375 C61.632,2.708375 61.3333125,3.07411654 61.3333125,3.52482524 L61.3333125,18.2218481 C61.3333125,18.6725568 61.632,19.0383749 62,19.0383749 C62.368,19.0383749 62.6666875,18.6725568 62.6666875,18.2218481 L62.6666875,3.52482524 C62.6666875,3.07411654 62.368,2.708375 62,2.708375" id="Fill-9-Copy-2" fill="#FFFFFF"></path>
                            <path d="M66,2.708375 C65.632,2.708375 65.3333125,3.07411654 65.3333125,3.52482524 L65.3333125,18.2218481 C65.3333125,18.6725568 65.632,19.0383749 66,19.0383749 C66.368,19.0383749 66.6666875,18.6725568 66.6666875,18.2218481 L66.6666875,3.52482524 C66.6666875,3.07411654 66.368,2.708375 66,2.708375" id="Fill-10-Copy-2" fill="#FFFFFF"></path>
                        </g>
                    </g>
                </g>
            </g>
        </g>
    </g>
</svg>