<?xml version="1.0" encoding="UTF-8"?>
<svg width="24px" height="22px" viewBox="0 0 24 22" version="1.1" xmlns="http://www.w3.org/2000/svg" xmlns:xlink="http://www.w3.org/1999/xlink">
    <!-- Generator: Sketch 47.1 (45422) - http://www.bohemiancoding.com/sketch -->
    <title>container 10ft</title>
    <desc>Created with Sketch.</desc>
    <defs>
        <polygon id="path-1" points="0.00375 21.37125 0.00375 0.0416875 32 0.0416875 32 21.37125"></polygon>
    </defs>
    <g id="Key-Pages" stroke="none" stroke-width="1" fill="none" fill-rule="evenodd">
        <g id="homepage-v5" transform="translate(-725.000000, -2119.000000)">
            <g id="SECTION:-ipad-Copy" transform="translate(0.000000, 1680.000000)">
                <g id="inventory" transform="translate(705.000000, 308.000000)">
                    <g id="product" transform="translate(0.000000, 111.000000)">
                        <g id="container-10ft" transform="translate(20.000000, 20.000000)">
                            <g id="container">
                                <mask id="mask-2" fill="white">
                                    <use xlink:href="#path-1"></use>
                                </mask>
                                <g id="Clip-2"></g>
                                <path d="M23.4999844,20.0416875 L0.500015625,20.0416875 C0.224015625,20.0416875 0,20.340375 0,20.708375 C0,21.076375 0.224015625,21.375 0.500015625,21.375 L23.4999844,21.375 C23.7759844,21.375 24,21.076375 24,20.708375 C24,20.340375 23.7759844,20.0416875 23.4999844,20.0416875" id="Fill-1" fill="#FFFFFF" mask="url(#mask-2)"></path>
                                <path d="M22.6666875,16.708375 C22.6666875,17.075 22.3666875,17.375 22,17.375 L2,17.375 C1.6333125,17.375 1.3333125,17.075 1.3333125,16.708375 L1.3333125,2.0416875 C1.3333125,1.675 1.6333125,1.375 2,1.375 L22,1.375 C22.3666875,1.375 22.6666875,1.675 22.6666875,2.0416875 L22.6666875,16.708375 Z M2,0.0416875 C0.8973125,0.0416875 0,0.939 0,2.0416875 L0,16.708375 C0,17.811 0.8973125,18.708375 2,18.708375 L22,18.708375 C23.1026875,18.708375 24,17.811 24,16.708375 L24,2.0416875 C24,0.939 23.1026875,0.0416875 22,0.0416875 L2,0.0416875 Z" id="Fill-3" fill="#FFFFFF" mask="url(#mask-2)"></path>
                            </g>
                            <path d="M6,2.708375 C5.632,2.708375 5.3333125,3.007 5.3333125,3.375 L5.3333125,15.375 C5.3333125,15.743 5.632,16.0416875 6,16.0416875 C6.368,16.0416875 6.6666875,15.743 6.6666875,15.375 L6.6666875,3.375 C6.6666875,3.007 6.368,2.708375 6,2.708375" id="Fill-5" fill="#FFFFFF"></path>
                            <path d="M14,2.708375 C13.632,2.708375 13.3333125,3.007 13.3333125,3.375 L13.3333125,15.375 C13.3333125,15.743 13.632,16.0416875 14,16.0416875 C14.368,16.0416875 14.6666875,15.743 14.6666875,15.375 L14.6666875,3.375 C14.6666875,3.007 14.368,2.708375 14,2.708375" id="Fill-6" fill="#FFFFFF"></path>
                            <path d="M10,2.708375 C9.632,2.708375 9.3333125,3.007 9.3333125,3.375 L9.3333125,15.375 C9.3333125,15.743 9.632,16.0416875 10,16.0416875 C10.368,16.0416875 10.6666875,15.743 10.6666875,15.375 L10.6666875,3.375 C10.6666875,3.007 10.368,2.708375 10,2.708375" id="Fill-7" fill="#FFFFFF"></path>
                            <path d="M18,2.708375 C17.632,2.708375 17.3333125,3.007 17.3333125,3.375 L17.3333125,15.375 C17.3333125,15.743 17.632,16.0416875 18,16.0416875 C18.368,16.0416875 18.6666875,15.743 18.6666875,15.375 L18.6666875,3.375 C18.6666875,3.007 18.368,2.708375 18,2.708375" id="Fill-8" fill="#FFFFFF"></path>
                        </g>
                    </g>
                </g>
            </g>
        </g>
    </g>
</svg>