<?xml version="1.0" encoding="UTF-8"?>
<svg width="100px" height="101px" viewBox="0 0 100 101" version="1.1" xmlns="http://www.w3.org/2000/svg" xmlns:xlink="http://www.w3.org/1999/xlink">
    <!-- Generator: Sketch 47.1 (45422) - http://www.bohemiancoding.com/sketch -->
    <title>most popular</title>
    <desc>Created with Sketch.</desc>
    <defs></defs>
    <g id="Key-Pages" stroke="none" stroke-width="1" fill="none" fill-rule="evenodd">
        <g id="homepage-v5" transform="translate(-1669.000000, -3589.000000)">
            <g id="SECTION:-three-col-Copy" transform="translate(0.000000, 3276.000000)">
                <g id="product-copy-2" transform="translate(1258.000000, 313.000000)">
                    <g id="most-popular" transform="translate(410.000000, 0.000000)">
                        <polygon id="Rectangle-16" fill="#009FDF" points="25.790075 0.995594287 101 75.3790366 101 101 0.995594287 0.974609375"></polygon>
                        <path d="M16.7,37.6 L18.068,37.6 L21.14,43.504 L24.188,37.6 L25.568,37.6 L25.568,46 L24.488,46 L24.476,39.292 L21.488,45.112 L20.78,45.112 L17.768,39.292 L17.768,46 L16.7,46 L16.7,37.6 Z M30.5,39.616 C31.1320032,39.616 31.6939975,39.7519986 32.186,40.024 C32.6780025,40.2960014 33.0619986,40.6739976 33.338,41.158 C33.6140014,41.6420024 33.752,42.1959969 33.752,42.82 C33.752,43.4440031 33.6140014,43.9999976 33.338,44.488 C33.0619986,44.9760024 32.6780025,45.3559986 32.186,45.628 C31.6939975,45.9000014 31.1320032,46.036 30.5,46.036 C29.8599968,46.036 29.2940025,45.9000014 28.802,45.628 C28.3099975,45.3559986 27.9260014,44.9780024 27.65,44.494 C27.3739986,44.0099976 27.236,43.4520032 27.236,42.82 C27.236,42.1959969 27.3739986,41.6420024 27.65,41.158 C27.9260014,40.6739976 28.3099975,40.2960014 28.802,40.024 C29.2940025,39.7519986 29.8599968,39.616 30.5,39.616 Z M30.5,40.588 C30.0839979,40.588 29.7140016,40.683999 29.39,40.876 C29.0659984,41.068001 28.8140009,41.3339983 28.634,41.674 C28.4539991,42.0140017 28.364,42.3999978 28.364,42.832 C28.364,43.2720022 28.4539991,43.6639983 28.634,44.008 C28.8140009,44.3520017 29.0659984,44.6179991 29.39,44.806 C29.7140016,44.9940009 30.0839979,45.088 30.5,45.088 C30.908002,45.088 31.2739984,44.9940009 31.598,44.806 C31.9220016,44.6179991 32.1739991,44.3520017 32.354,44.008 C32.5340009,43.6639983 32.624,43.2720022 32.624,42.832 C32.624,42.3999978 32.5340009,42.0140017 32.354,41.674 C32.1739991,41.3339983 31.9220016,41.068001 31.598,40.876 C31.2739984,40.683999 30.908002,40.588 30.5,40.588 Z M38.78,41.056 C38.5159987,40.8959992 38.2260016,40.7680005 37.91,40.672 C37.5939984,40.5759995 37.2920014,40.528 37.004,40.528 C36.6679983,40.528 36.398001,40.5899994 36.194,40.714 C35.989999,40.8380006 35.888,41.0279987 35.888,41.284 C35.888,41.5400013 36.0019989,41.7339993 36.23,41.866 C36.4580011,41.9980007 36.8039977,42.1319993 37.268,42.268 C37.7080022,42.3960006 38.0679986,42.5239994 38.348,42.652 C38.6280014,42.7800006 38.865999,42.9679988 39.062,43.216 C39.258001,43.4640012 39.356,43.791998 39.356,44.2 C39.356,44.800003 39.1300023,45.2559984 38.678,45.568 C38.2259977,45.8800016 37.6640034,46.036 36.992,46.036 C36.5199976,46.036 36.0620022,45.9600008 35.618,45.808 C35.1739978,45.6559992 34.8000015,45.4400014 34.496,45.16 L34.916,44.344 C35.1800013,44.5840012 35.5059981,44.7759993 35.894,44.92 C36.2820019,45.0640007 36.6599982,45.136 37.028,45.136 C37.3960018,45.136 37.6919989,45.0680007 37.916,44.932 C38.1400011,44.7959993 38.252,44.5880014 38.252,44.308 C38.252,44.0199986 38.1340012,43.8040007 37.898,43.66 C37.6619988,43.5159993 37.3040024,43.3720007 36.824,43.228 C36.3999979,43.1079994 36.0540013,42.9860006 35.786,42.862 C35.5179987,42.7379994 35.2900009,42.5560012 35.102,42.316 C34.9139991,42.0759988 34.82,41.7640019 34.82,41.38 C34.82,40.787997 35.0359978,40.3440015 35.468,40.048 C35.9000022,39.7519985 36.4399968,39.604 37.088,39.604 C37.4720019,39.604 37.8499981,39.6579995 38.222,39.766 C38.5940019,39.8740005 38.9159986,40.0199991 39.188,40.204 L38.78,41.056 Z M44.24,45.58 C43.7519976,45.8920016 43.2560025,46.048 42.752,46.048 C42.2479975,46.048 41.8400016,45.8980015 41.528,45.598 C41.2159984,45.2979985 41.06,44.844003 41.06,44.236 L41.06,40.72 L40.16,40.72 L40.16,39.868 L41.06,39.868 L41.06,38.164 L42.188,38.164 L42.188,39.868 L44.132,39.868 L44.132,40.72 L42.188,40.72 L42.188,44.032 C42.188,44.3840018 42.2519994,44.6359992 42.38,44.788 C42.5080006,44.9400008 42.6999987,45.016 42.956,45.016 C43.2600015,45.016 43.5879982,44.916001 43.94,44.716 L44.24,45.58 Z M52.088,37.6 C53.1360052,37.6 53.9459971,37.8479975 54.518,38.344 C55.0900029,38.8400025 55.376,39.5359955 55.376,40.432 C55.376,41.3680047 55.0880029,42.0939974 54.512,42.61 C53.9359971,43.1260026 53.1280052,43.384 52.088,43.384 L50,43.384 L50,46 L48.848,46 L48.848,37.6 L52.088,37.6 Z M52.04,42.34 C52.7600036,42.34 53.3119981,42.1820016 53.696,41.866 C54.0800019,41.5499984 54.272,41.0840031 54.272,40.468 C54.272,39.867997 54.0800019,39.4140015 53.696,39.106 C53.3119981,38.7979985 52.7600036,38.644 52.04,38.644 L50,38.656 L50,42.34 L52.04,42.34 Z M59.432,39.616 C60.0640032,39.616 60.6259975,39.7519986 61.118,40.024 C61.6100025,40.2960014 61.9939986,40.6739976 62.27,41.158 C62.5460014,41.6420024 62.684,42.1959969 62.684,42.82 C62.684,43.4440031 62.5460014,43.9999976 62.27,44.488 C61.9939986,44.9760024 61.6100025,45.3559986 61.118,45.628 C60.6259975,45.9000014 60.0640032,46.036 59.432,46.036 C58.7919968,46.036 58.2260025,45.9000014 57.734,45.628 C57.2419975,45.3559986 56.8580014,44.9780024 56.582,44.494 C56.3059986,44.0099976 56.168,43.4520032 56.168,42.82 C56.168,42.1959969 56.3059986,41.6420024 56.582,41.158 C56.8580014,40.6739976 57.2419975,40.2960014 57.734,40.024 C58.2260025,39.7519986 58.7919968,39.616 59.432,39.616 Z M59.432,40.588 C59.0159979,40.588 58.6460016,40.683999 58.322,40.876 C57.9979984,41.068001 57.7460009,41.3339983 57.566,41.674 C57.3859991,42.0140017 57.296,42.3999978 57.296,42.832 C57.296,43.2720022 57.3859991,43.6639983 57.566,44.008 C57.7460009,44.3520017 57.9979984,44.6179991 58.322,44.806 C58.6460016,44.9940009 59.0159979,45.088 59.432,45.088 C59.840002,45.088 60.2059984,44.9940009 60.53,44.806 C60.8540016,44.6179991 61.1059991,44.3520017 61.286,44.008 C61.4660009,43.6639983 61.556,43.2720022 61.556,42.832 C61.556,42.3999978 61.4660009,42.0140017 61.286,41.674 C61.1059991,41.3339983 60.8540016,41.068001 60.53,40.876 C60.2059984,40.683999 59.840002,40.588 59.432,40.588 Z M67.772,39.616 C68.364003,39.616 68.8919977,39.7519986 69.356,40.024 C69.8200023,40.2960014 70.1799987,40.6759976 70.436,41.164 C70.6920013,41.6520024 70.82,42.2119968 70.82,42.844 C70.82,43.4680031 70.6940013,44.0219976 70.442,44.506 C70.1899987,44.9900024 69.8340023,45.3659987 69.374,45.634 C68.9139977,45.9020013 68.388003,46.036 67.796,46.036 C67.2599973,46.036 66.788002,45.9240011 66.38,45.7 C65.971998,45.4759989 65.6520012,45.1560021 65.42,44.74 L65.42,48.328 L64.304,48.328 L64.304,39.652 L65.42,39.652 L65.42,40.912 C65.6520012,40.4959979 65.969998,40.1760011 66.374,39.952 C66.778002,39.7279989 67.2439974,39.616 67.772,39.616 Z M67.556,45.064 C67.964002,45.064 68.3299984,44.968001 68.654,44.776 C68.9780016,44.583999 69.2299991,44.3160017 69.41,43.972 C69.5900009,43.6279983 69.68,43.2400022 69.68,42.808 C69.68,42.3839979 69.5880009,42.0000017 69.404,41.656 C69.2199991,41.3119983 68.9680016,41.044001 68.648,40.852 C68.3279984,40.659999 67.964002,40.564 67.556,40.564 C67.147998,40.564 66.7820016,40.659999 66.458,40.852 C66.1339984,41.044001 65.8800009,41.3119983 65.696,41.656 C65.5119991,42.0000017 65.42,42.3839979 65.42,42.808 C65.42,43.2480022 65.5119991,43.6379983 65.696,43.978 C65.8800009,44.3180017 66.1339984,44.583999 66.458,44.776 C66.7820016,44.968001 67.147998,45.064 67.556,45.064 Z M77.996,39.652 L77.996,46 L76.868,46 L76.868,44.656 C76.4519979,45.5600045 75.6680058,46.0199999 74.516,46.036 C73.7799963,46.036 73.2040021,45.8180022 72.788,45.382 C72.3719979,44.9459978 72.164,44.3440038 72.164,43.576 L72.164,39.652 L73.292,39.652 L73.292,43.276 C73.292,43.8120027 73.4379985,44.2299985 73.73,44.53 C74.0220015,44.8300015 74.4239974,44.98 74.936,44.98 C75.528003,44.972 75.9979983,44.7620021 76.346,44.35 C76.6940017,43.9379979 76.868,43.4120032 76.868,42.772 L76.868,39.652 L77.996,39.652 Z M80.228,37.096 L81.344,37.096 L81.344,46 L80.228,46 L80.228,37.096 Z M87.464,46 L87.464,45.112 C86.9919976,45.7360031 86.252005,46.048 85.244,46.048 C84.8039978,46.048 84.4180017,45.9640008 84.086,45.796 C83.7539983,45.6279992 83.4980009,45.3960015 83.318,45.1 C83.1379991,44.8039985 83.048,44.4720018 83.048,44.104 C83.048,43.5359972 83.2579979,43.0860017 83.678,42.754 C84.0980021,42.4219983 84.6839962,42.252 85.436,42.244 L87.452,42.244 L87.452,41.944 C87.452,41.4959978 87.3140014,41.1500012 87.038,40.906 C86.7619986,40.6619988 86.3600026,40.54 85.832,40.54 C85.1919968,40.54 84.5400033,40.7679977 83.876,41.224 L83.408,40.456 C83.8640023,40.1599985 84.2859981,39.9460007 84.674,39.814 C85.0620019,39.6819993 85.5239973,39.616 86.06,39.616 C86.852004,39.616 87.4639978,39.8099981 87.896,40.198 C88.3280022,40.5860019 88.548,41.1279965 88.556,41.824 L88.568,46 L87.464,46 Z M85.472,45.124 C85.9920026,45.124 86.4339982,44.9980013 86.798,44.746 C87.1620018,44.4939987 87.3799996,44.1600021 87.452,43.744 L87.452,43.108 L85.592,43.108 C85.0879975,43.108 84.7140012,43.1839992 84.47,43.336 C84.2259988,43.4880008 84.104,43.7279984 84.104,44.056 C84.104,44.3840016 84.2279988,44.643999 84.476,44.836 C84.7240012,45.028001 85.0559979,45.124 85.472,45.124 Z M91.676,41.02 C91.884001,40.5639977 92.1799981,40.2180012 92.564,39.982 C92.9480019,39.7459988 93.4039974,39.624 93.932,39.616 L93.932,40.696 C93.2839968,40.6719999 92.760002,40.8399982 92.36,41.2 C91.959998,41.5600018 91.7320003,42.043997 91.676,42.652 L91.676,46 L90.56,46 L90.56,39.652 L91.676,39.652 L91.676,41.02 Z" id="Most-Popular" fill="#FFFFFF" transform="translate(55.316000, 42.712000) rotate(-315.000000) translate(-55.316000, -42.712000) "></path>
                    </g>
                </g>
            </g>
        </g>
    </g>
</svg>