<?xml version="1.0" encoding="UTF-8"?>
<svg width="142px" height="142px" viewBox="0 0 142 142" version="1.1" xmlns="http://www.w3.org/2000/svg" xmlns:xlink="http://www.w3.org/1999/xlink">
    <!-- Generator: Sketch 47.1 (45422) - http://www.bohemiancoding.com/sketch -->
    <title>icon-step1</title>
    <desc>Created with Sketch.</desc>
    <defs>
        <polygon id="path-1" points="0 27.0001055 0 0.0002109375 53.98589 0.0002109375 53.98589 54 26.992945 54 0 54"></polygon>
    </defs>
    <g id="Key-Pages" stroke="none" stroke-width="1" fill="none" fill-rule="evenodd">
        <g id="homepage-v5" transform="translate(-337.000000, -1270.000000)">
            <g id="SECTION:-123" transform="translate(0.000000, 1060.000000)">
                <g id="how-it-works" transform="translate(268.000000, 143.000000)">
                    <g id="Group-18" transform="translate(0.000000, 68.000000)">
                        <g id="icon-step1" transform="translate(70.000000, 0.000000)">
                            <circle id="Oval-4-Copy-2" stroke="#009FDF" fill="#FFFFFF" cx="70" cy="70" r="70"></circle>
                            <g id="gps" transform="translate(40.000000, 47.000000)">
                                <g id="Group-6">
                                    <mask id="mask-2" fill="white">
                                        <use xlink:href="#path-1"></use>
                                    </mask>
                                    <g id="Clip-2"></g>
                                    <path d="M19.4439253,53.9991562 C19.2123301,53.9991562 18.9788251,53.9532773 18.7595363,53.8605703 L1.0535835,46.3193437 C0.413328094,46.046918 0,45.4216992 0,44.7309844 L0,4.00042969 C0,3.42014063 0.293764244,2.87824219 0.780506876,2.55814453 C1.26915914,2.23794141 1.88586248,2.18467969 2.42151277,2.41207031 L20.1284204,9.95329688 C20.7686758,10.2257227 21.1820039,10.8509414 21.1820039,11.5417617 L21.1820039,30.2980078 C21.1820039,31.2527109 20.4042554,32.0257969 19.4439253,32.0257969 C18.4835953,32.0257969 17.7059528,31.2527109 17.7059528,30.2980078 L17.7059528,12.6817734 L3.47509627,6.62027344 L3.47509627,43.5908672 L17.7059528,49.6523672 L17.7059528,42.5023242 C17.7059528,41.5476211 18.4835953,40.7745352 19.4439253,40.7745352 C20.4042554,40.7745352 21.1820039,41.5476211 21.1820039,42.5023242 L21.1820039,52.2722109 C21.1820039,52.8525 20.8882397,53.3945039 20.4014971,53.7146016 C20.1124008,53.9036016 19.7801257,53.9991562 19.4439253,53.9991562" id="Fill-1" fill="#0A090B" mask="url(#mask-2)"></path>
                                    <path d="M52.2479175,51.7274648 C52.0105933,51.7274648 51.7724204,51.6796875 51.5493124,51.5823398 L34.2811945,44.0411133 C33.6494263,43.7649961 33.241721,43.144418 33.241721,42.459293 L33.241721,36.0047109 C33.241721,35.0500078 34.0193635,34.2769219 34.9797996,34.2769219 C35.9401297,34.2769219 36.7177721,35.0500078 36.7177721,36.0047109 L36.7177721,41.3314102 L50.5098389,47.3545195 L50.5098389,10.3970039 L36.7177721,4.37484375 L36.7177721,24.0100664 C36.7177721,24.9647695 35.9401297,25.7378555 34.9797996,25.7378555 C34.0193635,25.7378555 33.241721,24.9647695 33.241721,24.0100664 L33.241721,1.72884375 C33.241721,1.14570703 33.5373949,0.600960938 34.0288055,0.2818125 C34.5221257,-0.0374414062 35.1426483,-0.0889101562 35.6782986,0.146074219 L52.9465226,7.68730078 C53.5782908,7.96341797 53.98589,8.58399609 53.98589,9.26912109 L53.98589,49.9996758 C53.98589,50.582707 53.6903222,51.1274531 53.1988055,51.446707 C52.9107701,51.6329648 52.5811473,51.7274648 52.2479175,51.7274648" id="Fill-3" fill="#0A090B" mask="url(#mask-2)"></path>
                                    <path d="M19.445835,54 C18.870613,54 18.3085462,53.7163945 17.976165,53.1988594 C17.4620511,52.3939219 17.7012849,51.3249961 18.5109666,50.8130508 L34.0467348,41.0001328 C34.8573713,40.4890313 35.9306876,40.7258086 36.4466051,41.5316953 C36.9607191,42.3367383 36.7214853,43.4055586 35.9118035,43.9176094 L20.3769902,53.7305273 C20.0870452,53.9129883 19.7650609,54 19.445835,54" id="Fill-4" fill="#0A090B" mask="url(#mask-2)"></path>
                                    <path d="M19.445835,13.2705 C18.870613,13.2705 18.3085462,12.9868945 17.976165,12.4692539 C17.4620511,11.6643164 17.7012849,10.5953906 18.5109666,10.0834453 L34.0476896,0.269578125 C34.8583261,-0.241417969 35.9316424,-0.00369140625 36.4475599,0.801246094 C36.9615678,1.60618359 36.7224401,2.67510937 35.9127583,3.18705469 L20.3769902,13.0009219 C20.0870452,13.1825391 19.7650609,13.2705 19.445835,13.2705" id="Fill-5" fill="#0A090B" mask="url(#mask-2)"></path>
                                </g>
                                <path d="M11.5005635,42 C10.8404562,42 10.2002975,41.7280852 9.73020918,41.2648314 C9.27003877,40.7914772 9,40.1478926 9,39.482178 C9,38.8164634 9.27105311,38.1728788 9.73020918,37.6995246 C10.6693716,36.7617818 12.3496754,36.7718821 13.2709179,37.6995246 C13.7410062,38.1728788 14,38.8164634 14,39.482178 C14,40.1478926 13.7399919,40.7914772 13.2709179,41.2648314 C12.8117618,41.7280852 12.1616852,42 11.5005635,42" id="Fill-7" fill="#0A090B"></path>
                                <path d="M34.4830607,30.1008892 C33.9946255,28.9433343 34.5852054,27.6321181 35.7860124,27.1618614 C36.9859744,26.6997565 38.3452271,27.2604981 38.8327117,28.4188682 C39.3107951,29.5763212 38.7296163,30.8966063 37.5296544,31.3577941 C37.2381143,31.4663149 36.9484756,31.5206262 36.6569355,31.5206262 C35.729817,31.5206262 34.8486477,30.9870912 34.4830607,30.1008892 Z M28.042983,32.5966631 C27.5648996,31.4392101 28.1451277,30.118925 29.3459347,29.6577372 C30.5458967,29.1865635 31.9145505,29.7562721 32.392634,30.914744 C32.8809636,32.072197 32.2903837,33.3834132 31.0895767,33.8536699 C30.8083884,33.9621907 30.5083979,34.0173172 30.2168578,34.0173172 C29.2897393,34.0164001 28.4076194,33.4828651 28.042983,32.5966631 Z M21.6112502,35.092539 C21.1237656,33.935086 21.7060007,32.6148009 22.9049064,32.1536131 C24.1141638,31.6833564 25.4734165,32.2439961 25.9618518,33.401551 C26.4399352,34.5680729 25.8587564,35.8792891 24.6579494,36.3404769 C24.3672544,36.4580665 24.076665,36.512276 23.7860756,36.512276 C22.8580064,36.512276 21.9777878,35.9696721 21.6112502,35.092539 Z M15.1711725,37.5884148 C14.6836879,36.4218929 15.2742678,35.1114919 16.4751805,34.6494889 C17.6740861,34.1792322 19.0333389,34.740789 19.5217741,35.8973249 C20.0092586,37.0548798 19.4186788,38.3751649 18.2177661,38.8363527 C17.9365778,38.9547575 17.6365873,39 17.3459979,39 C16.4179287,38.9990829 15.5377102,38.4655479 15.1711725,37.5884148 L15.1711725,37.5884148 Z" id="Fill-8" fill="#0A090B"></path>
                                <path d="M43.5004508,29 C42.8403435,29 42.1901542,28.7282477 41.7300965,28.2563942 C41.2589938,27.7925901 41,27.1395684 41,26.4846194 C41,25.8206007 41.2600081,25.166672 41.7300965,24.7037749 C42.6603552,23.7670969 44.3396448,23.7670969 45.2598729,24.6936848 C45.7308629,25.1665586 46,25.8195803 46,26.4835991 C46,27.1376411 45.7299612,27.7915698 45.2598729,28.2553739 C44.8007168,28.7282477 44.1516545,29 43.5004508,29" id="Fill-9" fill="#0A090B"></path>
                                <path d="M43.4885184,17.9098886 C42.1966927,17.9098886 41.1499302,16.8378445 41.1499302,15.519019 C41.1499302,14.2001935 42.1966927,13.1280417 43.4885184,13.1280417 C44.7792901,13.1280417 45.8251039,14.2001935 45.8251039,15.519019 C45.8251039,16.8378445 44.7792901,17.9098886 43.4885184,17.9098886 Z M47.6613389,13.7497367 C46.1272959,10.3889841 42.110578,10.3459859 40.1864364,12.3428674 C36.8760276,15.7743138 41.3276405,20.9501488 43.4014551,24 C45.5445197,21.057267 49.1159077,16.9401132 47.6613389,13.7497367 L47.6613389,13.7497367 Z" id="Fill-10" fill="#0A090B"></path>
                                <path d="M10.4887213,29.9094161 C9.19703528,29.9094161 8.1504914,28.8414011 8.1504914,27.520954 C8.1504914,26.196736 9.19703528,25.128721 10.4887213,25.128721 C11.7813558,25.128721 12.8270565,26.196736 12.8270565,27.520954 C12.8270565,28.8414011 11.7804072,29.9094161 10.4887213,29.9094161 Z M14.6611958,25.748327 C13.1272133,22.3884915 9.1110353,22.345396 7.18615338,24.3456751 C3.87610267,27.7743557 8.32818253,32.9508833 10.4017727,36 C12.5473458,33.0540971 16.1156072,28.9398744 14.6611958,25.748327 L14.6611958,25.748327 Z" id="Fill-11" fill="#0A090B"></path>
                            </g>
                        </g>
                    </g>
                </g>
            </g>
        </g>
    </g>
</svg>