<?xml version="1.0" encoding="UTF-8"?>
<svg width="142px" height="142px" viewBox="0 0 142 142" version="1.1" xmlns="http://www.w3.org/2000/svg" xmlns:xlink="http://www.w3.org/1999/xlink">
    <!-- Generator: Sketch 47.1 (45422) - http://www.bohemiancoding.com/sketch -->
    <title>icon-step3</title>
    <desc>Created with Sketch.</desc>
    <defs>
        <polygon id="path-1" points="7.21644966e-16 45.6970313 42.859375 45.6970313 42.859375 0 0 0"></polygon>
        <polygon id="path-3" points="0.00609375 36.5625 0.00609375 0 48.4612578 0 48.4612578 36.5625"></polygon>
    </defs>
    <g id="Key-Pages" stroke="none" stroke-width="1" fill="none" fill-rule="evenodd">
        <g id="homepage-v5" transform="translate(-1451.000000, -1270.000000)">
            <g id="SECTION:-123" transform="translate(0.000000, 1060.000000)">
                <g id="how-it-works" transform="translate(268.000000, 143.000000)">
                    <g id="Group-17" transform="translate(1108.000000, 68.000000)">
                        <g id="icon-step3" transform="translate(76.000000, 0.000000)">
                            <circle id="Oval-4" stroke="#009FDF" fill="#FFFFFF" cx="70" cy="70" r="70"></circle>
                            <g id="Group-5" transform="translate(46.046875, 42.000000)">
                                <mask id="mask-2" fill="white">
                                    <use xlink:href="#path-1"></use>
                                </mask>
                                <g id="Clip-2"></g>
                                <path d="M12.2890625,4.5703125 L12.2890625,10.0332578 L14.8895703,12.6337656 C15.484625,13.2288203 15.484625,14.1929531 14.8895703,14.7880078 C14.2945156,15.3830625 13.3303828,15.3830625 12.7353281,14.7880078 L9.68845312,11.7411328 C9.40285938,11.4555391 9.2421875,11.0686875 9.2421875,10.6640625 L9.2421875,4.5703125 C9.2421875,3.72825781 9.92357031,3.046875 10.765625,3.046875 C11.6076797,3.046875 12.2890625,3.72825781 12.2890625,4.5703125 Z M0,10.6640625 C0,16.5436172 4.88607031,21.328125 10.765625,21.328125 C16.6451797,21.328125 21.4296875,16.5436172 21.4296875,10.6640625 C21.4296875,4.78450781 16.6451797,0 10.765625,0 C4.88607031,0 0,4.78450781 0,10.6640625 L0,10.6640625 Z" id="Fill-1" fill="#0A090B" mask="url(#mask-2)"></path>
                                <path d="M9.2421875,41.1328125 C9.2421875,41.9741563 8.56009375,42.65625 7.71875,42.65625 C6.87740625,42.65625 6.1953125,41.9741563 6.1953125,41.1328125 C6.1953125,40.2912656 6.87740625,39.609375 7.71875,39.609375 C8.56009375,39.609375 9.2421875,40.2912656 9.2421875,41.1328125 Z M3.1484375,41.1328125 C3.1484375,43.6529844 5.19857813,45.703125 7.71875,45.703125 C10.2389219,45.703125 12.2890625,43.6529844 12.2890625,41.1328125 C12.2890625,38.6126406 10.2389219,36.5625 7.71875,36.5625 C5.19857813,36.5625 3.1484375,38.6126406 3.1484375,41.1328125 L3.1484375,41.1328125 Z" id="Fill-3" fill="#0A090B" mask="url(#mask-2)"></path>
                                <path d="M36.765625,41.1328125 C36.765625,40.2912656 37.4477187,39.609375 38.2890625,39.609375 C39.1304063,39.609375 39.8125,40.2912656 39.8125,41.1328125 C39.8125,41.9741563 39.1304063,42.65625 38.2890625,42.65625 C37.4477187,42.65625 36.765625,41.9741563 36.765625,41.1328125 Z M42.859375,41.1328125 C42.859375,38.6126406 40.8092344,36.5625 38.2890625,36.5625 C35.7688906,36.5625 33.71875,38.6126406 33.71875,41.1328125 C33.71875,43.6529844 35.7688906,45.703125 38.2890625,45.703125 C40.8092344,45.703125 42.859375,43.6529844 42.859375,41.1328125 L42.859375,41.1328125 Z" id="Fill-4" fill="#0A090B" mask="url(#mask-2)"></path>
                            </g>
                            <path d="M88.90625,73.9921875 C88.90625,73.1501328 89.5876328,72.46875 90.4296875,72.46875 L94.7193828,72.46875 C94.088375,70.6993281 92.4132031,69.421875 90.4296875,69.421875 L79.765625,69.421875 L79.765625,77.0779609 C81.0426719,76.1112891 82.6146562,75.515625 84.3359375,75.515625 C88.5358516,75.515625 91.953125,78.9328984 91.953125,83.1328125 C91.953125,83.5722734 91.8951328,83.9968047 91.8233281,84.4159531 C93.659375,83.8225234 95,82.1170859 95,80.0859375 L95,75.515625 L90.4296875,75.515625 C89.5876328,75.515625 88.90625,74.8342422 88.90625,73.9921875" id="Fill-6" fill="#0A090B"></path>
                            <g id="Group-10" transform="translate(43.000000, 48.093750)">
                                <mask id="mask-4" fill="white">
                                    <use xlink:href="#path-3"></use>
                                </mask>
                                <g id="Clip-8"></g>
                                <polyline id="Fill-7" fill="#0A090B" mask="url(#mask-4)" points="36.765625 18.28125 48.4612578 18.28125 46.0234531 9.140625 36.765625 9.140625 36.765625 18.28125"></polyline>
                                <path d="M3.17667188,36.3222031 C3.10486719,35.9030547 3.046875,35.4785234 3.046875,35.0390625 C3.046875,30.8391484 6.56571094,27.421875 10.765625,27.421875 C14.9655391,27.421875 18.3828125,30.8391484 18.3828125,35.0390625 C18.3828125,35.5606875 18.3290859,36.0700234 18.2286406,36.5625 L32.1953125,36.5625 C33.0373672,36.5625 33.71875,35.8811172 33.71875,35.0390625 L33.71875,4.5703125 C33.71875,2.05014062 31.5670469,0 29.046875,0 L26.6811797,0 C27.1933594,1.43660156 27.5234375,2.96003906 27.5234375,4.5703125 C27.5234375,12.1309297 21.3731172,18.28125 13.8125,18.28125 C6.25188281,18.28125 0,12.1309297 0,4.5703125 L0,31.9921875 C0,34.0233359 1.340625,35.7287734 3.17667188,36.3222031" id="Fill-9" fill="#0A090B" mask="url(#mask-4)"></path>
                            </g>
                            <path d="M90.4296875,52.6640625 C90.4296875,51.8235313 89.7467812,51.140625 88.90625,51.140625 L79.765625,51.140625 L79.765625,54.1875 L88.90625,54.1875 C89.7467812,54.1875 90.4296875,53.5045937 90.4296875,52.6640625" id="Fill-11" fill="#0A090B"></path>
                        </g>
                    </g>
                </g>
            </g>
        </g>
    </g>
</svg>