<?xml version="1.0" encoding="UTF-8"?>
<svg width="142px" height="142px" viewBox="0 0 142 142" version="1.1" xmlns="http://www.w3.org/2000/svg" xmlns:xlink="http://www.w3.org/1999/xlink">
    <!-- Generator: Sketch 47.1 (45422) - http://www.bohemiancoding.com/sketch -->
    <title>icon-step2</title>
    <desc>Created with Sketch.</desc>
    <defs>
        <polygon id="path-1" points="18.9508989 0.10247191 0.0128089888 0.10247191 0.0128089888 43.465382 37.8889888 43.465382 37.8889888 0.10247191"></polygon>
    </defs>
    <g id="Key-Pages" stroke="none" stroke-width="1" fill="none" fill-rule="evenodd">
        <g id="homepage-v5" transform="translate(-894.000000, -1270.000000)">
            <g id="SECTION:-123" transform="translate(0.000000, 1060.000000)">
                <g id="how-it-works" transform="translate(268.000000, 143.000000)">
                    <g id="icon-step2" transform="translate(627.000000, 68.000000)">
                        <circle id="Oval-4-Copy" stroke="#009FDF" fill="#FFFFFF" cx="70" cy="70" r="70"></circle>
                        <g id="dollar-coins-stack" transform="translate(45.000000, 48.000000)">
                            <g id="Group-7">
                                <mask id="mask-2" fill="white">
                                    <use xlink:href="#path-1"></use>
                                </mask>
                                <g id="Clip-2"></g>
                                <path d="M37.8889888,7.38182022 C37.8889888,11.4021348 29.4073034,14.6609551 18.9449213,14.6609551 C8.48168539,14.6609551 0,11.4021348 0,7.38182022 C0,3.36150562 8.48168539,0.10247191 18.9449213,0.10247191 C29.4073034,0.10247191 37.8889888,3.36150562 37.8889888,7.38182022 Z" id="Fill-1" fill="#000000" mask="url(#mask-2)"></path>
                                <path d="M18.9449213,21.8619551 C29.4081573,21.8619551 37.8889888,18.6029213 37.8889888,14.5826067 C37.8889888,13.952191 37.6806292,13.3409888 37.2895281,12.7579663 C37.2160899,12.6488764 37.0201124,12.4652809 36.675764,12.7129213 C35.618382,13.5318427 34.6384944,13.9872022 33.0098315,14.6127079 C29.2239213,16.067809 24.2286292,16.8692247 18.9449213,16.8692247 C13.6612135,16.8692247 8.66613483,16.067809 4.8791573,14.6127079 C3.25134831,13.9872022 2.09725843,13.4043933 1.0398764,12.5854719 C0.839842697,12.4336854 0.667134831,12.6586966 0.590494382,12.7722697 C0.205157303,13.3510225 0,13.9579551 0,14.5826067 C0,18.6029213 8.48168539,21.8619551 18.9449213,21.8619551 Z" id="Fill-3" fill="#000000" mask="url(#mask-2)"></path>
                                <path d="M24.3370787,38.418427 C24.3278989,38.3535281 24.3086854,38.2183933 24.1261573,38.240809 C22.5024045,38.4043371 20.6602584,38.4717978 18.9449213,38.4717978 C13.6612135,38.4717978 8.66613483,37.6705955 4.8791573,36.2161348 C3.25134831,35.5906292 2.32333708,35.1704944 1.26595506,34.3507191 C0.933134831,34.1639213 0.582808989,34.3791124 0.478629213,34.5541685 C0.165022472,35.0786966 0,35.625 0,36.1860337 C0,40.2063483 8.48168539,43.465382 18.9449213,43.465382 C21.2099775,43.465382 24.0369213,43.339427 26.0507079,43.0593371 C26.2274719,43.0108764 26.1832809,42.858236 26.1333258,42.7807416 C25.3904045,41.6266517 24.5605955,39.9520899 24.3370787,38.418427 Z" id="Fill-4" fill="#000000" mask="url(#mask-2)"></path>
                                <path d="M18.9449213,36.2645955 C21.1331236,36.2645955 22.4590674,36.1587079 23.5190112,36.0502584 C23.8134045,36.0084157 23.8257865,35.8284494 23.8257865,35.733236 C23.8257865,34.2471798 24.0268876,32.8078764 24.4030449,31.4394494 C24.447236,31.2784831 24.5714831,30.9599663 24.2220112,30.9949775 C22.4232022,31.1992809 20.8637079,31.2710112 18.9449213,31.2710112 C13.6612135,31.2710112 8.66613483,30.4704494 4.8791573,29.0153483 C3.25134831,28.3898427 2.3724382,28.0036517 1.31505618,27.1838764 C0.80888764,26.8363258 0.582808989,27.1781124 0.478629213,27.3531685 C0.165022472,27.8776966 0,28.424 0,28.9852472 C0,33.0047079 8.48168539,36.2645955 18.9449213,36.2645955 Z" id="Fill-5" fill="#000000" mask="url(#mask-2)"></path>
                                <path d="M29.1637191,23.5305393 C29.3490225,23.3646629 29.7808989,22.9534944 29.197236,23.009427 C25.9789775,23.8240787 22.8484607,24.0702247 18.9449213,24.0702247 C13.6612135,24.0702247 8.66613483,23.2696629 4.8791573,21.8143483 C3.25134831,21.1882022 2.22492135,20.6986854 1.16753933,19.8789101 C0.80888764,19.6353258 0.639595506,19.8981236 0.552921348,20.0315506 C0.191707865,20.5925843 0,21.1796629 0,21.7836067 C0,25.8039213 8.48168539,29.0627416 18.9449213,29.0627416 C21.1732584,29.0627416 22.8894494,28.9711573 24.8756966,28.6991798 C25.3077865,28.633427 25.4245618,28.3706292 25.4894607,28.2372022 C26.3860899,26.3875843 27.619382,24.9132697 29.1637191,23.5305393 Z" id="Fill-6" fill="#000000" mask="url(#mask-2)"></path>
                            </g>
                            <path d="M42.9893146,33.9421124 C41.3314045,33.2773258 40.8527753,32.8755506 40.8527753,32.1499213 C40.8527753,31.5694607 41.2923371,30.8916517 42.5322472,30.8916517 C43.6289101,30.8916517 44.4704607,31.3235281 44.4779326,31.3277978 C44.5663146,31.375191 44.6655843,31.4001685 44.764,31.4001685 C45.0041685,31.4001685 45.2159438,31.2552135 45.3043258,31.0299888 L45.6053371,30.2595281 C45.7103708,29.9792247 45.5511124,29.7341461 45.3485169,29.646618 C44.6730562,29.3530787 43.3537303,29.1252921 43.3396404,29.1229438 C43.3187191,29.1195281 43.244427,29.1037303 43.244427,29.0168427 L43.2403708,27.8994719 C43.2403708,27.5634494 42.9592135,27.2891236 42.6148652,27.2891236 L42.0745393,27.2891236 C41.7293371,27.2891236 41.4490337,27.5634494 41.4490337,27.8994719 L41.4498876,29.0744831 C41.4498876,29.164573 41.3523258,29.2036404 41.3173146,29.2119663 C39.6510787,29.608191 38.6103483,30.8291011 38.6103483,32.3685281 C38.6103483,34.2873146 40.1965281,35.1544831 41.9086629,35.8049663 C43.2779438,36.3429438 43.8357753,36.8875393 43.8357753,37.6872472 C43.8357753,38.5569775 43.0452472,39.1641236 41.9118652,39.1641236 C40.944573,39.1641236 39.6352809,38.5512135 39.6220449,38.544382 C39.538573,38.5053146 39.4493371,38.4852472 39.3575393,38.4852472 C39.1090449,38.4852472 38.8915056,38.6361798 38.8048315,38.8688764 L38.5170562,39.6476629 C38.4143708,39.9388539 38.5721348,40.1747528 38.7738764,40.2797865 C39.5778539,40.698427 41.1339326,40.944573 41.2039551,40.9552472 C41.2223146,40.957809 41.3173146,40.9911124 41.3173146,41.078 L41.3173146,42.2470337 C41.3173146,42.5839101 41.5982584,42.857382 41.9428202,42.857382 L42.5015056,42.857382 C42.8467079,42.857382 43.1278652,42.5839101 43.1278652,42.2470337 L43.1278652,41.0160899 C43.1278652,40.9010225 43.2128315,40.8912022 43.2303371,40.8869326 C45.004809,40.4883596 46.0982697,39.1899551 46.0982697,37.5595843 C46.0982697,35.8850225 45.1683371,34.8026629 42.9893146,33.9421124 Z" id="Fill-8" fill="#000000"></path>
                            <path d="M42.2914382,20.4051461 C34.1906067,20.4051461 27.6236517,26.9729551 27.6236517,35.0737865 C27.6236517,43.1744045 34.1906067,49.741573 42.2914382,49.741573 C50.3920562,49.741573 56.9592247,43.1744045 56.9592247,35.0737865 C56.9592247,26.9721011 50.3920562,20.4051461 42.2914382,20.4051461 Z M42.2914382,46.3416404 C36.067764,46.3416404 31.0233708,41.2963933 31.0233708,35.0729326 C31.0233708,28.8501124 36.067764,23.8048652 42.2914382,23.8048652 C48.5148989,23.8048652 53.5601461,28.8501124 53.5601461,35.0729326 C53.5601461,41.2963933 48.5148989,46.3416404 42.2914382,46.3416404 Z" id="Fill-9" fill="#000000"></path>
                        </g>
                    </g>
                </g>
            </g>
        </g>
    </g>
</svg>